<svg xmlns="http://www.w3.org/2000/svg" width="1500" height="500" viewBox="0 0 1500 500" role="img" aria-label="Pellametric quiet green header">
  <defs>
    <linearGradient id="bg" x1="0" y1="0" x2="1500" y2="500" gradientUnits="userSpaceOnUse">
      <stop offset="0" stop-color="#6e8a6f"/>
      <stop offset="0.64" stop-color="#58725d"/>
      <stop offset="1" stop-color="#0a0b0d"/>
    </linearGradient>
    <linearGradient id="cream" x1="0" y1="0" x2="0" y2="500" gradientUnits="userSpaceOnUse">
      <stop offset="0" stop-color="#ede8de" stop-opacity="0.92"/>
      <stop offset="0.48" stop-color="#ede8de" stop-opacity="0.34"/>
      <stop offset="1" stop-color="#ede8de" stop-opacity="0"/>
    </linearGradient>
  </defs>
  <rect width="1500" height="500" fill="url(#bg)"/>
  <rect width="1500" height="245" fill="url(#cream)"/>
  <path d="M0 258C198 245 319 224 511 234c269 14 424 62 725 23 118-15 200-34 264-37v280H0z" fill="#0a0b0d" opacity="0.22"/>
  <path d="M0 260C223 242 355 226 543 239c258 17 406 57 693 20 119-15 202-34 264-35" fill="none" stroke="#ede8de" stroke-width="3" opacity="0.25"/>
  <path d="M0 312C222 298 350 287 541 296c260 12 413 43 697 13 117-13 201-27 262-28" fill="none" stroke="#b07b3e" stroke-width="3" opacity="0.35"/>
  <g transform="translate(995 80) scale(2.8)" fill="#0a0b0d" opacity="0.28">
    <path d="m75 0.9h-63.8c-1.1 0.1-1.6 0.5-1.6 1.6v21.3c0 1.2-0.1 1.3 0.9 1.3h64c3.9 0 8.5 0.4 13.3 3.6 4.4 3 7.3 8.2 7.1 13.2 0.8 10.3-7.1 24.5-21.4 24.5h-11.1c-0.8 0-1.2 0.6-1.5 1.2l-8.9 20c-1 2.8-0.7 4 1.4 4h21.3c23.8 0 44.2-16.3 44.3-46.1 0.1-18.4-14.6-44.3-44-44.6z"/>
    <path d="m42.1 33.1c-0.7 0.1-1.7 0-2.2 1.9l-38.6 87.2c-0.4 1-0.2 2.1 1.3 2.1h22.9c1 0 1.5 0 1.9-1l28.5-63.4c0.6-1.2 0.8-1.4 2.1-1.4h16.4c7.8 0 12.5-6.1 12.6-12.4 0-5.6-4.2-13-12.8-13h-32.1z"/>
  </g>
</svg>
