<svg xmlns="http://www.w3.org/2000/svg" width="1500" height="500" viewBox="0 0 1500 500" role="img" aria-label="Pellametric product instrument header">
  <defs>
    <linearGradient id="bg" x1="0" y1="0" x2="1500" y2="500" gradientUnits="userSpaceOnUse">
      <stop offset="0" stop-color="#050506"/>
      <stop offset="0.48" stop-color="#0a0b0d"/>
      <stop offset="1" stop-color="#101612"/>
    </linearGradient>
    <radialGradient id="glow" cx="70%" cy="46%" r="58%">
      <stop offset="0" stop-color="#6e8a6f" stop-opacity="0.32"/>
      <stop offset="0.42" stop-color="#6e8a6f" stop-opacity="0.12"/>
      <stop offset="1" stop-color="#6e8a6f" stop-opacity="0"/>
    </radialGradient>
    <linearGradient id="surface" x1="520" y1="76" x2="1380" y2="420" gradientUnits="userSpaceOnUse">
      <stop offset="0" stop-color="#15191a"/>
      <stop offset="0.5" stop-color="#0f1212"/>
      <stop offset="1" stop-color="#070808"/>
    </linearGradient>
    <linearGradient id="signal" x1="590" y1="342" x2="1320" y2="170" gradientUnits="userSpaceOnUse">
      <stop offset="0" stop-color="#6e8a6f"/>
      <stop offset="0.58" stop-color="#9aa98c"/>
      <stop offset="1" stop-color="#b07b3e"/>
    </linearGradient>
    <filter id="shadow" x="-10%" y="-20%" width="120%" height="140%">
      <feDropShadow dx="0" dy="24" stdDeviation="24" flood-color="#000000" flood-opacity="0.45"/>
    </filter>
    <pattern id="grid" width="48" height="48" patternUnits="userSpaceOnUse">
      <path d="M48 0H0v48" fill="none" stroke="#ede8de" stroke-width="1" opacity="0.035"/>
    </pattern>
  </defs>
  <rect width="1500" height="500" fill="url(#bg)"/>
  <rect width="1500" height="500" fill="url(#grid)"/>
  <rect width="1500" height="500" fill="url(#glow)"/>

  <path d="M0 330C174 308 294 284 470 300c238 22 368 91 630 45 167-30 252-93 400-86v241H0z" fill="#6e8a6f" opacity="0.08"/>
  <path d="M0 360C172 342 296 322 468 334c242 18 376 62 631 23 168-26 259-69 401-62" fill="none" stroke="#6e8a6f" stroke-width="2" opacity="0.28"/>
  <path d="M0 389C170 376 292 359 472 368c242 13 375 43 626 13 172-21 263-51 402-45" fill="none" stroke="#b07b3e" stroke-width="2" opacity="0.23"/>

  <g transform="translate(80 74)" font-family="ui-monospace, SFMono-Regular, Menlo, monospace">
    <text x="0" y="0" fill="#ede8de" opacity="0.36" font-size="14" letter-spacing="4">AGENTIC ENGINEERING TELEMETRY</text>
    <text x="0" y="42" fill="#ede8de" opacity="0.74" font-size="22" letter-spacing="1">spend -> work -> shipped code</text>
    <rect x="0" y="68" width="178" height="2" fill="#6e8a6f" opacity="0.72"/>
    <rect x="196" y="68" width="78" height="2" fill="#b07b3e" opacity="0.66"/>
  </g>

  <g transform="translate(532 70)" filter="url(#shadow)">
    <rect width="832" height="360" rx="28" fill="url(#surface)" stroke="#ede8de" stroke-opacity="0.11"/>
    <rect x="0" y="0" width="832" height="62" rx="28" fill="#ede8de" opacity="0.025"/>
    <circle cx="34" cy="31" r="5" fill="#6e8a6f"/>
    <circle cx="54" cy="31" r="5" fill="#b07b3e"/>
    <circle cx="74" cy="31" r="5" fill="#ede8de" opacity="0.42"/>
    <text x="106" y="36" fill="#ede8de" opacity="0.46" font-family="ui-monospace, SFMono-Regular, Menlo, monospace" font-size="13" letter-spacing="1">metrics.yourteam.internal / summary</text>

    <g transform="translate(34 92)" font-family="ui-monospace, SFMono-Regular, Menlo, monospace">
      <rect width="168" height="84" rx="10" fill="#050506" stroke="#ede8de" stroke-opacity="0.09"/>
      <text x="18" y="28" fill="#ede8de" opacity="0.36" font-size="11" letter-spacing="2">AI SPEND</text>
      <text x="18" y="64" fill="#ede8de" font-size="31">$4.2k</text>
    </g>
    <g transform="translate(222 92)" font-family="ui-monospace, SFMono-Regular, Menlo, monospace">
      <rect width="168" height="84" rx="10" fill="#050506" stroke="#ede8de" stroke-opacity="0.09"/>
      <text x="18" y="28" fill="#ede8de" opacity="0.36" font-size="11" letter-spacing="2">ACCEPTED EDITS</text>
      <text x="18" y="64" fill="#6e8a6f" font-size="31">12,480</text>
    </g>
    <g transform="translate(410 92)" font-family="ui-monospace, SFMono-Regular, Menlo, monospace">
      <rect width="168" height="84" rx="10" fill="#050506" stroke="#ede8de" stroke-opacity="0.09"/>
      <text x="18" y="28" fill="#ede8de" opacity="0.36" font-size="11" letter-spacing="2">MERGED PRS</text>
      <text x="18" y="64" fill="#ede8de" font-size="31">186</text>
    </g>
    <g transform="translate(598 92)" font-family="ui-monospace, SFMono-Regular, Menlo, monospace">
      <rect width="200" height="84" rx="10" fill="#050506" stroke="#ede8de" stroke-opacity="0.09"/>
      <text x="18" y="28" fill="#ede8de" opacity="0.36" font-size="11" letter-spacing="2">PER-DOLLAR EDITS</text>
      <text x="18" y="64" fill="#b07b3e" font-size="31">14.2x</text>
    </g>

    <g transform="translate(34 212)">
      <rect width="512" height="112" rx="12" fill="#050506" stroke="#ede8de" stroke-opacity="0.09"/>
      <path d="M24 78C86 60 125 43 180 50c64 8 104 43 177 31 70-12 102-64 178-63 38 1 70 16 104 27" fill="none" stroke="#ede8de" stroke-opacity="0.12" stroke-width="2"/>
      <path d="M24 79C86 60 125 43 180 50c64 8 104 43 177 31 70-12 102-64 178-63 38 1 70 16 104 27" fill="none" stroke="url(#signal)" stroke-width="7" stroke-linecap="round"/>
      <path d="M24 88H488" stroke="#ede8de" stroke-opacity="0.06"/>
      <path d="M24 56H488" stroke="#ede8de" stroke-opacity="0.05"/>
      <circle cx="180" cy="50" r="5" fill="#ede8de" opacity="0.5"/>
      <circle cx="357" cy="81" r="5" fill="#b07b3e"/>
      <circle cx="535" cy="18" r="5" fill="#6e8a6f"/>
    </g>

    <g transform="translate(584 218)" fill="#6e8a6f">
      <rect width="14" height="14" rx="3" opacity="0.25"/>
      <rect x="24" width="14" height="14" rx="3" opacity="0.58"/>
      <rect x="48" width="14" height="14" rx="3" opacity="0.82"/>
      <rect x="72" width="14" height="14" rx="3" opacity="0.44"/>
      <rect x="96" width="14" height="14" rx="3" opacity="0.68"/>
      <rect x="120" width="14" height="14" rx="3" opacity="0.35"/>
      <rect x="144" width="14" height="14" rx="3" opacity="0.76"/>
      <rect y="24" width="14" height="14" rx="3" opacity="0.6"/>
      <rect x="24" y="24" width="14" height="14" rx="3" opacity="0.38"/>
      <rect x="48" y="24" width="14" height="14" rx="3" opacity="0.92"/>
      <rect x="72" y="24" width="14" height="14" rx="3" opacity="0.56"/>
      <rect x="96" y="24" width="14" height="14" rx="3" opacity="0.28"/>
      <rect x="120" y="24" width="14" height="14" rx="3" opacity="0.7"/>
      <rect x="144" y="24" width="14" height="14" rx="3" opacity="0.48"/>
      <rect y="48" width="14" height="14" rx="3" opacity="0.34"/>
      <rect x="24" y="48" width="14" height="14" rx="3" opacity="0.74"/>
      <rect x="48" y="48" width="14" height="14" rx="3" opacity="0.46"/>
      <rect x="72" y="48" width="14" height="14" rx="3" opacity="0.86"/>
      <rect x="96" y="48" width="14" height="14" rx="3" opacity="0.54"/>
      <rect x="120" y="48" width="14" height="14" rx="3" opacity="0.32"/>
      <rect x="144" y="48" width="14" height="14" rx="3" opacity="0.62"/>
    </g>
  </g>

  <rect x="0" y="282" width="392" height="218" fill="#050506" opacity="0.62"/>
</svg>
