<svg xmlns="http://www.w3.org/2000/svg" width="1500" height="500" viewBox="0 0 1500 500" role="img" aria-label="Pellametric signal grid header">
  <defs>
    <linearGradient id="bg" x1="0" y1="0" x2="1500" y2="500" gradientUnits="userSpaceOnUse">
      <stop offset="0" stop-color="#050506"/>
      <stop offset="0.58" stop-color="#0a0b0d"/>
      <stop offset="1" stop-color="#111316"/>
    </linearGradient>
    <radialGradient id="field" cx="72%" cy="42%" r="64%">
      <stop offset="0" stop-color="#6e8a6f" stop-opacity="0.26"/>
      <stop offset="0.48" stop-color="#6e8a6f" stop-opacity="0.08"/>
      <stop offset="1" stop-color="#6e8a6f" stop-opacity="0"/>
    </radialGradient>
    <linearGradient id="lineA" x1="320" y1="372" x2="1460" y2="96" gradientUnits="userSpaceOnUse">
      <stop offset="0" stop-color="#6e8a6f" stop-opacity="0.05"/>
      <stop offset="0.46" stop-color="#6e8a6f" stop-opacity="0.72"/>
      <stop offset="1" stop-color="#b07b3e" stop-opacity="0.76"/>
    </linearGradient>
    <linearGradient id="lineB" x1="360" y1="420" x2="1440" y2="194" gradientUnits="userSpaceOnUse">
      <stop offset="0" stop-color="#ede8de" stop-opacity="0"/>
      <stop offset="0.55" stop-color="#ede8de" stop-opacity="0.24"/>
      <stop offset="1" stop-color="#ede8de" stop-opacity="0.06"/>
    </linearGradient>
    <pattern id="grid" width="44" height="44" patternUnits="userSpaceOnUse">
      <path d="M44 0H0v44" fill="none" stroke="#ede8de" stroke-width="1" opacity="0.035"/>
    </pattern>
    <filter id="soft">
      <feGaussianBlur stdDeviation="18"/>
    </filter>
  </defs>
  <rect width="1500" height="500" fill="url(#bg)"/>
  <rect width="1500" height="500" fill="url(#field)"/>
  <rect x="0" y="0" width="1500" height="500" fill="url(#grid)"/>
  <path d="M0 356C170 332 268 296 423 312c205 22 322 104 568 60 179-32 292-124 509-119v247H0z" fill="#6e8a6f" opacity="0.09"/>
  <path d="M0 394C162 370 270 350 414 356c221 9 353 78 583 39 186-31 282-92 503-78" fill="none" stroke="#ede8de" stroke-width="1.5" opacity="0.13"/>
  <path d="M320 371C459 310 562 288 673 304c134 19 202 91 355 63 128-24 191-121 346-119" fill="none" stroke="url(#lineA)" stroke-width="7" stroke-linecap="round"/>
  <path d="M348 418C491 384 576 374 693 384c141 12 226 51 365 30 134-21 199-67 346-66" fill="none" stroke="url(#lineB)" stroke-width="3" stroke-linecap="round"/>
  <path d="M742 302C845 245 930 214 1040 220c119 7 208 58 327 23" fill="none" stroke="#6e8a6f" stroke-width="70" stroke-linecap="round" opacity="0.08" filter="url(#soft)"/>
  <g fill="#ede8de" opacity="0.38">
    <circle cx="672" cy="304" r="4"/>
    <circle cx="817" cy="354" r="3"/>
    <circle cx="1028" cy="367" r="5"/>
    <circle cx="1166" cy="288" r="4"/>
    <circle cx="1374" cy="248" r="5"/>
  </g>
  <g fill="#b07b3e" opacity="0.74">
    <circle cx="481" cy="321" r="5"/>
    <circle cx="1367" cy="244" r="6"/>
  </g>
  <g opacity="0.34">
    <rect x="935" y="108" width="284" height="1" fill="#6e8a6f"/>
    <rect x="935" y="130" width="210" height="1" fill="#b07b3e"/>
    <rect x="935" y="152" width="246" height="1" fill="#ede8de" opacity="0.35"/>
  </g>
  <rect x="0" y="270" width="360" height="230" fill="#050506" opacity="0.5"/>
</svg>
