<svg xmlns="http://www.w3.org/2000/svg" width="1500" height="500" viewBox="0 0 1500 500" role="img" aria-label="Pellametric instrument header">
  <defs>
    <linearGradient id="bg" x1="0" y1="0" x2="1500" y2="500" gradientUnits="userSpaceOnUse">
      <stop offset="0" stop-color="#050506"/>
      <stop offset="0.58" stop-color="#0a0b0d"/>
      <stop offset="1" stop-color="#111316"/>
    </linearGradient>
    <linearGradient id="sweep" x1="40" y1="390" x2="1460" y2="130" gradientUnits="userSpaceOnUse">
      <stop offset="0" stop-color="#6e8a6f" stop-opacity="0"/>
      <stop offset="0.42" stop-color="#6e8a6f" stop-opacity="0.22"/>
      <stop offset="0.72" stop-color="#b07b3e" stop-opacity="0.16"/>
      <stop offset="1" stop-color="#b07b3e" stop-opacity="0"/>
    </linearGradient>
    <pattern id="grid" width="42" height="42" patternUnits="userSpaceOnUse">
      <path d="M42 0H0v42" fill="none" stroke="#ede8de" stroke-width="1" opacity="0.045"/>
    </pattern>
  </defs>
  <rect width="1500" height="500" fill="url(#bg)"/>
  <rect width="1500" height="500" fill="url(#grid)"/>
  <path d="M0 348C220 326 333 264 526 286c228 26 347 87 592 38 169-34 256-95 382-90v266H0z" fill="#6e8a6f" opacity="0.13"/>
  <path d="M0 390C222 367 353 309 547 327c240 22 356 78 610 24 146-31 222-79 343-76" fill="none" stroke="url(#sweep)" stroke-width="66" stroke-linecap="round"/>
  <path d="M0 352C235 329 356 280 565 303c239 26 364 81 608 24 127-30 219-70 327-66" fill="none" stroke="#6e8a6f" stroke-width="2" opacity="0.32"/>
  <path d="M0 386C230 368 362 332 560 347c239 19 365 52 610 7 128-24 219-54 330-48" fill="none" stroke="#b07b3e" stroke-width="2" opacity="0.22"/>
  <g opacity="0.1" fill="#ede8de">
    <circle cx="963" cy="144" r="4"/>
    <circle cx="1014" cy="132" r="3"/>
    <circle cx="1070" cy="130" r="4"/>
    <circle cx="1126" cy="140" r="3"/>
    <circle cx="1188" cy="158" r="4"/>
  </g>
  <g transform="translate(930 74) scale(3.2)" fill="#6e8a6f" opacity="0.18">
    <path d="m75 0.9h-63.8c-1.1 0.1-1.6 0.5-1.6 1.6v21.3c0 1.2-0.1 1.3 0.9 1.3h64c3.9 0 8.5 0.4 13.3 3.6 4.4 3 7.3 8.2 7.1 13.2 0.8 10.3-7.1 24.5-21.4 24.5h-11.1c-0.8 0-1.2 0.6-1.5 1.2l-8.9 20c-1 2.8-0.7 4 1.4 4h21.3c23.8 0 44.2-16.3 44.3-46.1 0.1-18.4-14.6-44.3-44-44.6z"/>
    <path d="m42.1 33.1c-0.7 0.1-1.7 0-2.2 1.9l-38.6 87.2c-0.4 1-0.2 2.1 1.3 2.1h22.9c1 0 1.5 0 1.9-1l28.5-63.4c0.6-1.2 0.8-1.4 2.1-1.4h16.4c7.8 0 12.5-6.1 12.6-12.4 0-5.6-4.2-13-12.8-13h-32.1z"/>
  </g>
  <rect x="1130" y="62" width="220" height="1" fill="#b07b3e" opacity="0.5"/>
  <rect x="1130" y="78" width="142" height="1" fill="#6e8a6f" opacity="0.55"/>
</svg>
