<svg xmlns="http://www.w3.org/2000/svg" width="1500" height="500" viewBox="0 0 1500 500" role="img" aria-label="Pellametric dark header with centered monogram">
  <defs>
    <radialGradient id="glow" cx="68%" cy="45%" r="58%">
      <stop offset="0" stop-color="#6e8a6f" stop-opacity="0.28"/>
      <stop offset="0.45" stop-color="#6e8a6f" stop-opacity="0.1"/>
      <stop offset="1" stop-color="#6e8a6f" stop-opacity="0"/>
    </radialGradient>
    <pattern id="ticks" width="90" height="90" patternUnits="userSpaceOnUse">
      <path d="M0 89.5H90" stroke="#ede8de" stroke-width="1" opacity="0.04"/>
      <path d="M89.5 0V90" stroke="#ede8de" stroke-width="1" opacity="0.04"/>
    </pattern>
  </defs>
  <rect width="1500" height="500" fill="#0a0b0d"/>
  <rect width="1500" height="500" fill="url(#ticks)"/>
  <rect width="1500" height="500" fill="url(#glow)"/>
  <g transform="translate(935 70) scale(3.05)" fill="#ede8de" opacity="0.78">
    <path d="m75 0.9h-63.8c-1.1 0.1-1.6 0.5-1.6 1.6v21.3c0 1.2-0.1 1.3 0.9 1.3h64c3.9 0 8.5 0.4 13.3 3.6 4.4 3 7.3 8.2 7.1 13.2 0.8 10.3-7.1 24.5-21.4 24.5h-11.1c-0.8 0-1.2 0.6-1.5 1.2l-8.9 20c-1 2.8-0.7 4 1.4 4h21.3c23.8 0 44.2-16.3 44.3-46.1 0.1-18.4-14.6-44.3-44-44.6z"/>
    <path d="m42.1 33.1c-0.7 0.1-1.7 0-2.2 1.9l-38.6 87.2c-0.4 1-0.2 2.1 1.3 2.1h22.9c1 0 1.5 0 1.9-1l28.5-63.4c0.6-1.2 0.8-1.4 2.1-1.4h16.4c7.8 0 12.5-6.1 12.6-12.4 0-5.6-4.2-13-12.8-13h-32.1z"/>
  </g>
  <path d="M760 109H1260" stroke="#6e8a6f" stroke-width="2" opacity="0.38"/>
  <path d="M760 391H1260" stroke="#b07b3e" stroke-width="2" opacity="0.32"/>
  <g fill="#6e8a6f" opacity="0.55">
    <circle cx="790" cy="109" r="5"/>
    <circle cx="973" cy="109" r="4"/>
    <circle cx="1228" cy="109" r="5"/>
  </g>
  <g fill="#b07b3e" opacity="0.55">
    <circle cx="846" cy="391" r="4"/>
    <circle cx="1068" cy="391" r="5"/>
    <circle cx="1240" cy="391" r="4"/>
  </g>
</svg>
