<svg xmlns="http://www.w3.org/2000/svg" width="1024" height="1024" viewBox="0 0 1024 1024" role="img" aria-label="Pellametric green monogram on cream background">
  <rect width="1024" height="1024" fill="#ede8de"/>
  <g transform="translate(233 221) scale(4.65)" fill="#6e8a6f">
    <path d="m75 0.9h-63.8c-1.1 0.1-1.6 0.5-1.6 1.6v21.3c0 1.2-0.1 1.3 0.9 1.3h64c3.9 0 8.5 0.4 13.3 3.6 4.4 3 7.3 8.2 7.1 13.2 0.8 10.3-7.1 24.5-21.4 24.5h-11.1c-0.8 0-1.2 0.6-1.5 1.2l-8.9 20c-1 2.8-0.7 4 1.4 4h21.3c23.8 0 44.2-16.3 44.3-46.1 0.1-18.4-14.6-44.3-44-44.6z"/>
    <path d="m42.1 33.1c-0.7 0.1-1.7 0-2.2 1.9l-38.6 87.2c-0.4 1-0.2 2.1 1.3 2.1h22.9c1 0 1.5 0 1.9-1l28.5-63.4c0.6-1.2 0.8-1.4 2.1-1.4h16.4c7.8 0 12.5-6.1 12.6-12.4 0-5.6-4.2-13-12.8-13h-32.1z"/>
  </g>
</svg>
